<svg width="80" height="80" viewBox="0 0 80 80" fill="none" xmlns="http://www.w3.org/2000/svg">
<circle cx="40" cy="40" r="40" fill="white"/>
<path d="M22.4216 33.1C22.4216 32.1387 22.6363 31.28 23.0656 30.524C23.5043 29.7587 24.097 29.166 24.8436 28.746C25.5996 28.3167 26.4443 28.102 27.3776 28.102C28.4696 28.102 29.4263 28.382 30.2476 28.942C31.069 29.502 31.643 30.2767 31.9696 31.266H29.7156C29.4916 30.7993 29.1743 30.4493 28.7636 30.216C28.3623 29.9827 27.8956 29.866 27.3636 29.866C26.7943 29.866 26.2856 30.0013 25.8376 30.272C25.399 30.5333 25.0536 30.9067 24.8016 31.392C24.559 31.8773 24.4376 32.4467 24.4376 33.1C24.4376 33.744 24.559 34.3133 24.8016 34.808C25.0536 35.2933 25.399 35.6713 25.8376 35.942C26.2856 36.2033 26.7943 36.334 27.3636 36.334C27.8956 36.334 28.3623 36.2173 28.7636 35.984C29.1743 35.7413 29.4916 35.3867 29.7156 34.92H31.9696C31.643 35.9187 31.069 36.698 30.2476 37.258C29.4356 37.8087 28.479 38.084 27.3776 38.084C26.4443 38.084 25.5996 37.874 24.8436 37.454C24.097 37.0247 23.5043 36.432 23.0656 35.676C22.6363 34.92 22.4216 34.0613 22.4216 33.1ZM35.6037 27.64V38H33.6437V27.64H35.6037ZM38.5342 29.32C38.1889 29.32 37.8996 29.2127 37.6662 28.998C37.4422 28.774 37.3302 28.4987 37.3302 28.172C37.3302 27.8453 37.4422 27.5747 37.6662 27.36C37.8996 27.136 38.1889 27.024 38.5342 27.024C38.8796 27.024 39.1642 27.136 39.3882 27.36C39.6216 27.5747 39.7382 27.8453 39.7382 28.172C39.7382 28.4987 39.6216 28.774 39.3882 28.998C39.1642 29.2127 38.8796 29.32 38.5342 29.32ZM39.5002 30.244V38H37.5402V30.244H39.5002ZM40.9327 34.122C40.9327 33.3193 41.096 32.6193 41.4227 32.022C41.7494 31.4153 42.202 30.9487 42.7807 30.622C43.3594 30.286 44.022 30.118 44.7687 30.118C45.73 30.118 46.5234 30.3607 47.1487 30.846C47.7834 31.322 48.208 31.994 48.4227 32.862H46.3087C46.1967 32.526 46.0054 32.2647 45.7347 32.078C45.4734 31.882 45.1467 31.784 44.7547 31.784C44.1947 31.784 43.7514 31.9893 43.4247 32.4C43.098 32.8013 42.9347 33.3753 42.9347 34.122C42.9347 34.8593 43.098 35.4333 43.4247 35.844C43.7514 36.2453 44.1947 36.446 44.7547 36.446C45.548 36.446 46.066 36.0913 46.3087 35.382H48.4227C48.208 36.222 47.7834 36.8893 47.1487 37.384C46.514 37.8787 45.7207 38.126 44.7687 38.126C44.022 38.126 43.3594 37.9627 42.7807 37.636C42.202 37.3 41.7494 36.8333 41.4227 36.236C41.096 35.6293 40.9327 34.9247 40.9327 34.122ZM54.4506 38L51.8186 34.696V38H49.8586V27.64H51.8186V33.534L54.4226 30.244H56.9706L53.5546 34.136L56.9986 38H54.4506ZM16.2451 44.854V48.606C16.2451 48.8673 16.3057 49.0587 16.4271 49.18C16.5577 49.292 16.7724 49.348 17.0711 49.348H17.9811V51H16.7491C15.0971 51 14.2711 50.1973 14.2711 48.592V44.854H13.3471V43.244H14.2711V41.326H16.2451V43.244H17.9811V44.854H16.2451ZM22.8348 51.126C22.0881 51.126 21.4161 50.9627 20.8188 50.636C20.2215 50.3 19.7501 49.8287 19.4048 49.222C19.0688 48.6153 18.9008 47.9153 18.9008 47.122C18.9008 46.3287 19.0735 45.6287 19.4188 45.022C19.7735 44.4153 20.2541 43.9487 20.8608 43.622C21.4675 43.286 22.1441 43.118 22.8908 43.118C23.6375 43.118 24.3141 43.286 24.9208 43.622C25.5275 43.9487 26.0035 44.4153 26.3488 45.022C26.7035 45.6287 26.8808 46.3287 26.8808 47.122C26.8808 47.9153 26.6988 48.6153 26.3348 49.222C25.9801 49.8287 25.4948 50.3 24.8788 50.636C24.2721 50.9627 23.5908 51.126 22.8348 51.126ZM22.8348 49.418C23.1895 49.418 23.5208 49.334 23.8288 49.166C24.1461 48.9887 24.3981 48.7273 24.5848 48.382C24.7715 48.0367 24.8648 47.6167 24.8648 47.122C24.8648 46.3847 24.6688 45.82 24.2768 45.428C23.8941 45.0267 23.4228 44.826 22.8628 44.826C22.3028 44.826 21.8315 45.0267 21.4488 45.428C21.0755 45.82 20.8888 46.3847 20.8888 47.122C20.8888 47.8593 21.0708 48.4287 21.4348 48.83C21.8081 49.222 22.2748 49.418 22.8348 49.418ZM31.1505 47.122C31.1505 46.3193 31.3138 45.6193 31.6405 45.022C31.9671 44.4153 32.4198 43.9487 32.9985 43.622C33.5771 43.286 34.2398 43.118 34.9865 43.118C35.9478 43.118 36.7411 43.3607 37.3665 43.846C38.0011 44.322 38.4258 44.994 38.6405 45.862H36.5265C36.4145 45.526 36.2231 45.2647 35.9525 45.078C35.6911 44.882 35.3645 44.784 34.9725 44.784C34.4125 44.784 33.9691 44.9893 33.6425 45.4C33.3158 45.8013 33.1525 46.3753 33.1525 47.122C33.1525 47.8593 33.3158 48.4333 33.6425 48.844C33.9691 49.2453 34.4125 49.446 34.9725 49.446C35.7658 49.446 36.2838 49.0913 36.5265 48.382H38.6405C38.4258 49.222 38.0011 49.8893 37.3665 50.384C36.7318 50.8787 35.9385 51.126 34.9865 51.126C34.2398 51.126 33.5771 50.9627 32.9985 50.636C32.4198 50.3 31.9671 49.8333 31.6405 49.236C31.3138 48.6293 31.1505 47.9247 31.1505 47.122ZM43.5204 51.126C42.7737 51.126 42.1017 50.9627 41.5044 50.636C40.907 50.3 40.4357 49.8287 40.0904 49.222C39.7544 48.6153 39.5864 47.9153 39.5864 47.122C39.5864 46.3287 39.759 45.6287 40.1044 45.022C40.459 44.4153 40.9397 43.9487 41.5464 43.622C42.153 43.286 42.8297 43.118 43.5764 43.118C44.323 43.118 44.9997 43.286 45.6064 43.622C46.213 43.9487 46.689 44.4153 47.0344 45.022C47.389 45.6287 47.5664 46.3287 47.5664 47.122C47.5664 47.9153 47.3844 48.6153 47.0204 49.222C46.6657 49.8287 46.1804 50.3 45.5644 50.636C44.9577 50.9627 44.2764 51.126 43.5204 51.126ZM43.5204 49.418C43.875 49.418 44.2064 49.334 44.5144 49.166C44.8317 48.9887 45.0837 48.7273 45.2704 48.382C45.457 48.0367 45.5504 47.6167 45.5504 47.122C45.5504 46.3847 45.3544 45.82 44.9624 45.428C44.5797 45.0267 44.1084 44.826 43.5484 44.826C42.9884 44.826 42.517 45.0267 42.1344 45.428C41.761 45.82 41.5744 46.3847 41.5744 47.122C41.5744 47.8593 41.7564 48.4287 42.1204 48.83C42.4937 49.222 42.9604 49.418 43.5204 49.418ZM50.9641 44.364C51.2161 44.0093 51.5614 43.7153 52.0001 43.482C52.4481 43.2393 52.9568 43.118 53.5261 43.118C54.1888 43.118 54.7861 43.2813 55.3181 43.608C55.8594 43.9347 56.2841 44.4013 56.5921 45.008C56.9094 45.6053 57.0681 46.3007 57.0681 47.094C57.0681 47.8873 56.9094 48.592 56.5921 49.208C56.2841 49.8147 55.8594 50.286 55.3181 50.622C54.7861 50.958 54.1888 51.126 53.5261 51.126C52.9568 51.126 52.4528 51.0093 52.0141 50.776C51.5848 50.5427 51.2348 50.2487 50.9641 49.894V54.696H49.0041V43.244H50.9641V44.364ZM55.0661 47.094C55.0661 46.6273 54.9681 46.226 54.7721 45.89C54.5854 45.5447 54.3334 45.2833 54.0161 45.106C53.7081 44.9287 53.3721 44.84 53.0081 44.84C52.6534 44.84 52.3174 44.9333 52.0001 45.12C51.6921 45.2973 51.4401 45.5587 51.2441 45.904C51.0574 46.2493 50.9641 46.6553 50.9641 47.122C50.9641 47.5887 51.0574 47.9947 51.2441 48.34C51.4401 48.6853 51.6921 48.9513 52.0001 49.138C52.3174 49.3153 52.6534 49.404 53.0081 49.404C53.3721 49.404 53.7081 49.3107 54.0161 49.124C54.3334 48.9373 54.5854 48.6713 54.7721 48.326C54.9681 47.9807 55.0661 47.57 55.0661 47.094ZM65.9124 43.244L61.1104 54.668H59.0244L60.7044 50.804L57.5964 43.244H59.7944L61.7964 48.662L63.8264 43.244H65.9124Z" fill="#222222"/>
</svg>
