<svg width="80" height="80" viewBox="0 0 80 80" fill="none" xmlns="http://www.w3.org/2000/svg">
<circle cx="40" cy="40" r="40" fill="white"/>
<path d="M9.32102 34.2644C9.49681 33.1799 9.89599 32.2504 10.5186 31.4761C11.1534 30.6929 11.9304 30.1326 12.8495 29.7954C13.7809 29.4493 14.773 29.3615 15.826 29.5322C17.0579 29.7319 18.0859 30.2227 18.9101 31.0046C19.7343 31.7866 20.2402 32.7655 20.4278 33.9413L17.885 33.5291C17.7176 32.9617 17.4236 32.5088 17.003 32.1705C16.5929 31.8339 16.0878 31.617 15.4876 31.5197C14.8453 31.4156 14.2467 31.4752 13.6918 31.6987C13.1492 31.9133 12.6913 32.2713 12.3183 32.7727C11.9558 33.2759 11.7148 33.896 11.5953 34.633C11.4776 35.3595 11.5104 36.024 11.6937 36.6264C11.8892 37.22 12.2097 37.7096 12.655 38.0952C13.1127 38.4719 13.6626 38.7123 14.3049 38.8164C14.9051 38.9137 15.4529 38.8674 15.9483 38.6776C16.4559 38.4789 16.8788 38.1368 17.2168 37.6513L19.7596 38.0635C19.2085 39.1304 18.4185 39.9046 17.3895 40.3862C16.3727 40.8589 15.2431 40.9946 14.0007 40.7932C12.9478 40.6226 12.0333 40.2312 11.2572 39.6192C10.4934 38.9983 9.93314 38.2213 9.5765 37.2882C9.2304 36.3568 9.14524 35.3489 9.32102 34.2644ZM24.9473 42.6162C24.105 42.4796 23.3767 42.1725 22.7626 41.6948C22.1502 41.2065 21.7046 40.5886 21.426 39.841C21.1578 39.0952 21.0963 38.2748 21.2414 37.3798C21.3864 36.4848 21.7092 35.7267 22.2098 35.1054C22.7208 34.4859 23.3484 34.0473 24.0925 33.7897C24.8384 33.5216 25.6325 33.4558 26.4748 33.5923C27.3171 33.7289 28.0498 34.0421 28.6727 34.5321C29.2974 35.0116 29.7491 35.6251 30.0277 36.3726C30.3169 37.1219 30.389 37.944 30.2439 38.839C30.0988 39.734 29.7655 40.4904 29.2439 41.1082C28.7329 41.7278 28.0992 42.1707 27.3428 42.4371C26.5987 42.6947 25.8002 42.7544 24.9473 42.6162ZM25.2596 40.6893C25.6597 40.7542 26.0489 40.72 26.4271 40.5868C26.8175 40.4448 27.1496 40.196 27.4233 39.8406C27.697 39.4851 27.8791 39.0284 27.9696 38.4703C28.1044 37.6385 27.9865 36.9657 27.616 36.4517C27.2577 35.929 26.7626 35.6165 26.1309 35.5141C25.4991 35.4117 24.9307 35.5518 24.4256 35.9346C23.9328 36.3086 23.6189 36.9115 23.4841 37.7433C23.3493 38.5751 23.4505 39.2507 23.7878 39.77C24.1372 40.2805 24.6279 40.5869 25.2596 40.6893ZM34.5813 36.3489C34.9304 35.9948 35.3738 35.7263 35.9113 35.5433C36.4611 35.3515 37.0571 35.3076 37.6994 35.4117C38.447 35.5329 39.091 35.8264 39.6314 36.2922C40.1824 36.7597 40.5762 37.3638 40.8127 38.1045C41.0615 38.8364 41.1133 39.6498 40.9682 40.5448C40.8232 41.4398 40.5153 42.2058 40.0447 42.8427C39.5863 43.4707 39.021 43.9248 38.3489 44.2049C37.6873 44.4867 36.9827 44.567 36.2351 44.4458C35.5928 44.3417 35.0456 44.1179 34.5934 43.7745C34.1517 43.4327 33.8106 43.0371 33.5701 42.5874L32.692 48.0047L30.4809 47.6463L32.575 34.727L34.7861 35.0854L34.5813 36.3489ZM38.7097 40.1788C38.795 39.6523 38.7579 39.1816 38.5982 38.7667C38.4508 38.343 38.2143 38.0021 37.8887 37.744C37.5737 37.4876 37.2108 37.3262 36.8002 37.2596C36.4001 37.1948 36.0039 37.2386 35.6118 37.3912C35.2319 37.5349 34.8998 37.7837 34.6156 38.1374C34.3419 38.4928 34.1623 38.9338 34.077 39.4603C33.9917 39.9867 34.0227 40.4618 34.1701 40.8855C34.3281 41.311 34.5638 41.6571 34.8771 41.924C35.2027 42.1821 35.5655 42.3436 35.9656 42.4084C36.3763 42.475 36.7724 42.4311 37.154 42.2769C37.5461 42.1243 37.879 41.8703 38.1528 41.5149C38.437 41.1611 38.6227 40.7157 38.7097 40.1788ZM44.5693 35.6013C44.1798 35.5382 43.873 35.3642 43.649 35.0793C43.4373 34.7857 43.3613 34.4546 43.421 34.0861C43.4807 33.7175 43.6566 33.4327 43.9485 33.2315C44.2527 33.0214 44.5996 32.948 44.9892 33.0111C45.3788 33.0743 45.6794 33.2527 45.8912 33.5463C46.1151 33.8312 46.1973 34.1579 46.1375 34.5264C46.0778 34.8949 45.8958 35.1842 45.5916 35.3942C45.2997 35.5954 44.9589 35.6645 44.5693 35.6013ZM45.4902 36.8204L44.0719 45.5702L41.8608 45.2118L43.279 36.462L45.4902 36.8204ZM55.1302 42.6782C55.079 42.9941 55.0119 43.275 54.9288 43.5209L48.5323 42.4841C48.4825 43.1243 48.6234 43.6551 48.955 44.0762C49.2865 44.4973 49.7366 44.754 50.3052 44.8462C51.1265 44.9793 51.768 44.7213 52.2298 44.0721L54.6147 44.4587C54.2255 45.2601 53.6285 45.8765 52.8237 46.308C52.0207 46.7289 51.098 46.8549 50.0556 46.6859C49.2133 46.5494 48.485 46.2422 47.8709 45.7645C47.269 45.2779 46.834 44.6617 46.5659 43.9159C46.3083 43.1717 46.252 42.3522 46.3971 41.4572C46.5438 40.5517 46.857 39.7866 47.3364 39.1619C47.8159 38.5373 48.4171 38.0944 49.1402 37.8334C49.8633 37.5724 50.6565 37.5119 51.5199 37.6518C52.3517 37.7867 53.065 38.086 53.6598 38.5498C54.2651 39.0153 54.693 39.6087 54.9435 40.3301C55.2062 41.0426 55.2685 41.8254 55.1302 42.6782ZM52.9425 41.6753C53.0241 41.105 52.8922 40.6189 52.5467 40.2172C52.2029 39.8048 51.7415 39.5517 51.1624 39.4579C50.6148 39.3691 50.1242 39.4625 49.6906 39.738C49.2691 40.0047 48.9685 40.426 48.7887 41.002L52.9425 41.6753ZM56.15 43.0056C56.2933 42.1211 56.5942 41.3649 57.0526 40.7368C57.5215 40.1104 58.0912 39.6625 58.7616 39.3929C59.4321 39.1234 60.1411 39.0492 60.8887 39.1704C61.4572 39.2625 61.979 39.4768 62.454 39.8131C62.9307 40.1389 63.2884 40.5319 63.5272 40.992L64.2005 36.8382L66.4432 37.2017L64.5488 48.8892L62.3061 48.5257L62.516 47.2306C62.1723 47.6179 61.7316 47.9031 61.1941 48.0861C60.6565 48.2691 60.0614 48.3077 59.4085 48.2019C58.6715 48.0824 58.0283 47.7837 57.4791 47.3057C56.9298 46.8276 56.5317 46.2174 56.2846 45.475C56.0498 44.7237 56.0049 43.9006 56.15 43.0056ZM63.031 44.1533C63.118 43.6164 63.087 43.1413 62.9378 42.7281C62.7904 42.3044 62.5539 41.9635 62.2283 41.7054C61.9045 41.4368 61.5372 41.2692 61.1266 41.2026C60.7159 41.1361 60.3207 41.1747 59.9408 41.3184C59.5609 41.4621 59.2288 41.7109 58.9445 42.0646C58.6725 42.4095 58.4938 42.8452 58.4085 43.3717C58.3232 43.8981 58.3534 44.3785 58.4991 44.8127C58.6571 45.2382 58.8927 45.5843 59.206 45.8512C59.5299 46.1198 59.8919 46.2866 60.292 46.3514C60.7026 46.418 61.1032 46.3803 61.4936 46.2382C61.8857 46.0857 62.2178 45.8369 62.4898 45.492C62.7636 45.1366 62.9439 44.6903 63.031 44.1533ZM71.3847 38.489L69.8955 46.0764L68.0318 45.7744L68.9998 38.1024L71.3847 38.489ZM68.412 49.6288C68.0119 49.564 67.6998 49.3891 67.4758 49.1043C67.2641 48.8106 67.1881 48.4795 67.2478 48.111C67.3076 47.7425 67.4834 47.4576 67.7754 47.2564C68.0796 47.0464 68.4317 46.9738 68.8318 47.0386C69.2214 47.1018 69.5221 47.2802 69.7338 47.5739C69.9473 47.857 70.0241 48.1828 69.9644 48.5513C69.9046 48.9199 69.7279 49.21 69.4343 49.4217C69.1423 49.623 68.8016 49.692 68.412 49.6288Z" fill="#222222"/>
</svg>
